<svg width="20" height="17" viewBox="0 0 20 17" fill="none" xmlns="http://www.w3.org/2000/svg">
<path fill-rule="evenodd" clip-rule="evenodd" d="M14.3747 16.6004C14.5404 16.6004 14.6994 16.5402 14.8166 16.433C14.9338 16.3259 14.9996 16.1805 14.9996 16.029V2.55301L18.9318 6.14912C19.0491 6.25641 19.2083 6.31668 19.3743 6.31668C19.5402 6.31668 19.6994 6.25641 19.8167 6.14912C19.9341 6.04184 20 5.89633 20 5.7446C20 5.59288 19.9341 5.44737 19.8167 5.34008L14.8171 0.769237C14.7591 0.716028 14.6901 0.673813 14.6142 0.64501C14.5383 0.616206 14.4569 0.601379 14.3747 0.601379C14.2925 0.601379 14.2111 0.616206 14.1351 0.64501C14.0592 0.673813 13.9902 0.716028 13.9322 0.769237L8.93258 5.34008C8.81524 5.44737 8.74931 5.59288 8.74931 5.7446C8.74931 5.89633 8.81524 6.04184 8.93258 6.14912C9.04993 6.25641 9.20909 6.31668 9.37505 6.31668C9.54101 6.31668 9.70017 6.25641 9.81752 6.14912L13.7497 2.55301V16.029C13.7497 16.1805 13.8155 16.3259 13.9327 16.433C14.0499 16.5402 14.2089 16.6004 14.3747 16.6004ZM5.62535 0.602401C5.79109 0.602401 5.95005 0.662597 6.06725 0.769747C6.18445 0.876897 6.2503 1.02222 6.2503 1.17376V14.6498L10.1825 11.0536C10.2998 10.9464 10.459 10.8861 10.625 10.8861C10.7909 10.8861 10.9501 10.9464 11.0674 11.0536C11.1848 11.1609 11.2507 11.3064 11.2507 11.4582C11.2507 11.6099 11.1848 11.7554 11.0674 11.8627L6.06781 16.4335C6.00976 16.4867 5.94079 16.5289 5.86487 16.5577C5.78894 16.5866 5.70755 16.6014 5.62535 16.6014C5.54314 16.6014 5.46175 16.5866 5.38582 16.5577C5.3099 16.5289 5.24093 16.4867 5.18288 16.4335L0.183275 11.8627C0.065926 11.7554 -3.91007e-09 11.6099 0 11.4582C3.91007e-09 11.3064 0.065926 11.1609 0.183275 11.0536C0.300624 10.9464 0.459783 10.8861 0.62574 10.8861C0.791697 10.8861 0.950856 10.9464 1.06821 11.0536L5.0004 14.6498V1.17376C5.0004 1.02222 5.06624 0.876897 5.18344 0.769747C5.30064 0.662597 5.4596 0.602401 5.62535 0.602401Z" fill="#3CE1A4"/>
</svg>
