<svg width="19" height="13" viewBox="0 0 19 13" fill="none" xmlns="http://www.w3.org/2000/svg">
<path fill-rule="evenodd" clip-rule="evenodd" d="M0 6.10761C0 5.92765 0.0714876 5.75507 0.198736 5.62782C0.325985 5.50057 0.498571 5.42908 0.678528 5.42908H16.6823L12.4116 1.15978C12.2842 1.03237 12.2126 0.859569 12.2126 0.679385C12.2126 0.499201 12.2842 0.326397 12.4116 0.198987C12.539 0.0715777 12.7119 4.24528e-09 12.892 0C13.0722 -4.24528e-09 13.245 0.0715777 13.3724 0.198987L18.8007 5.62721C18.8638 5.69024 18.914 5.76512 18.9482 5.84755C18.9824 5.92999 19 6.01836 19 6.10761C19 6.19686 18.9824 6.28523 18.9482 6.36767C18.914 6.4501 18.8638 6.52498 18.8007 6.58801L13.3724 12.0162C13.245 12.1436 13.0722 12.2152 12.892 12.2152C12.7119 12.2152 12.539 12.1436 12.4116 12.0162C12.2842 11.8888 12.2126 11.716 12.2126 11.5358C12.2126 11.3556 12.2842 11.1828 12.4116 11.0554L16.6823 6.78614H0.678528C0.498571 6.78614 0.325985 6.71465 0.198736 6.5874C0.0714876 6.46015 0 6.28757 0 6.10761Z" fill="#121212"/>
</svg>
