<svg width="179" height="179" viewBox="0 0 179 179" fill="none" xmlns="http://www.w3.org/2000/svg">
<g opacity="0.8" clip-path="url(#clip0_934_3040)">
<path d="M150.665 138.389C142.722 125.591 125.236 111.875 89.4919 111.875C53.7478 111.875 36.2729 125.58 28.3186 138.389C35.6473 147.577 44.9535 154.994 55.5446 160.088C66.1358 165.182 77.7393 167.822 89.4919 167.812C101.244 167.822 112.848 165.182 123.439 160.088C134.03 154.994 143.336 147.577 150.665 138.389Z" fill="white"/>
<path fill-rule="evenodd" clip-rule="evenodd" d="M89.5 100.688C98.4013 100.688 106.938 97.1515 113.232 90.8573C119.526 84.5631 123.062 76.0263 123.062 67.125C123.062 58.2237 119.526 49.6869 113.232 43.3927C106.938 37.0985 98.4013 33.5625 89.5 33.5625C80.5987 33.5625 72.0619 37.0985 65.7677 43.3927C59.4735 49.6869 55.9375 58.2237 55.9375 67.125C55.9375 76.0263 59.4735 84.5631 65.7677 90.8573C72.0619 97.1515 80.5987 100.688 89.5 100.688Z" fill="white"/>
<path fill-rule="evenodd" clip-rule="evenodd" d="M89.5 11.1875C68.7302 11.1875 48.8111 19.4383 34.1247 34.1247C19.4383 48.8111 11.1875 68.7302 11.1875 89.5C11.1875 110.27 19.4383 130.189 34.1247 144.875C48.8111 159.562 68.7302 167.812 89.5 167.812C110.27 167.812 130.189 159.562 144.875 144.875C159.562 130.189 167.812 110.27 167.812 89.5C167.812 68.7302 159.562 48.8111 144.875 34.1247C130.189 19.4383 110.27 11.1875 89.5 11.1875ZM0 89.5C0 65.7631 9.42944 42.9985 26.2139 26.2139C42.9985 9.42944 65.7631 0 89.5 0C113.237 0 136.002 9.42944 152.786 26.2139C169.571 42.9985 179 65.7631 179 89.5C179 113.237 169.571 136.002 152.786 152.786C136.002 169.571 113.237 179 89.5 179C65.7631 179 42.9985 169.571 26.2139 152.786C9.42944 136.002 0 113.237 0 89.5Z" fill="white"/>
</g>
<defs>
<clipPath id="clip0_934_3040">
<rect width="179" height="179" fill="white"/>
</clipPath>
</defs>
</svg>
