<svg width="60" height="60" viewBox="0 0 60 60" fill="none" xmlns="http://www.w3.org/2000/svg">
<rect width="60" height="60" rx="30" fill="#E8FFE5"/>
<rect width="60" height="60" rx="30" fill="#48E1A8"/>
<g clip-path="url(#clip0_818_685)">
<path d="M30.75 43.5L18.161 43.5C17.6424 43.5 16.5 43.5 16.5 43.5C16.5 43.5 16.5 42.3347 16.5 41.8125V23.25L14.25 23.25V41.8125C14.25 42.8568 14.2501 45.75 14.2501 45.75C14.2501 45.75 17.1238 45.75 18.161 45.75L30.75 45.75V43.5Z" fill="#121212"/>
<path d="M31.5 14.25L23.2501 14.25L23.2501 16.5H31.5L31.5 14.25Z" fill="#121212"/>
<path d="M23.25 20.25V14.25L14.25 23.25H20.25C21.0456 23.25 23.25 23.25 23.25 23.25C23.25 23.25 23.25 21.0456 23.25 20.25Z" fill="#121212"/>
<path d="M38.25 17.7395C38.25 17.985 38.2224 18.2179 38.1673 18.4383C38.1146 18.6559 38.0391 18.8581 37.9408 19.045C37.8426 19.2319 37.7263 19.3992 37.5921 19.5471C37.4579 19.6949 37.3105 19.8218 37.1499 19.9278C36.9918 20.031 36.8228 20.1105 36.643 20.1663C36.4633 20.2221 36.28 20.25 36.093 20.25H34.407C34.2176 20.25 34.0331 20.2221 33.8534 20.1663C33.6736 20.1105 33.5034 20.031 33.3429 19.9278C33.1847 19.8218 33.0385 19.6949 32.9043 19.5471C32.7701 19.3992 32.6538 19.2319 32.5556 19.045C32.4597 18.8581 32.3842 18.6559 32.3291 18.4383C32.2764 18.2179 32.25 17.985 32.25 17.7395V16.7605C32.25 16.3923 32.3087 16.0547 32.4262 15.7479C32.546 15.4411 32.7054 15.1775 32.9043 14.9571C33.1032 14.734 33.3321 14.561 33.5909 14.4383C33.8522 14.3128 34.1242 14.25 34.407 14.25H36.093C36.28 14.25 36.4633 14.2779 36.643 14.3337C36.8228 14.3895 36.9918 14.4704 37.1499 14.5764C37.3105 14.6796 37.4579 14.8051 37.5921 14.9529C37.7263 15.1008 37.8426 15.2681 37.9408 15.455C38.0391 15.6419 38.1146 15.8455 38.1673 16.0659C38.2224 16.2835 38.25 16.515 38.25 16.7605V17.7395ZM37.0133 16.9506C37.0133 16.7359 36.9798 16.5406 36.9127 16.3649C36.8456 16.1891 36.7557 16.0385 36.643 15.913C36.5328 15.7875 36.4046 15.6912 36.2584 15.6243C36.1122 15.5573 35.9588 15.5253 35.7982 15.5281H34.7461C34.5903 15.5253 34.4286 15.549 34.28 15.6159C34.1338 15.6801 34.0031 15.7749 33.8881 15.9004C33.7755 16.0232 33.6844 16.1738 33.6149 16.3523C33.5478 16.5281 33.5142 16.7247 33.5142 16.9423V17.5393C33.5142 17.7568 33.5478 17.9535 33.6149 18.1292C33.682 18.305 33.7719 18.4556 33.8845 18.5811C33.9972 18.7038 34.1266 18.7987 34.2728 18.8656C34.4214 18.9326 34.5759 18.9647 34.7365 18.9619H35.7982C35.9828 18.9619 36.1493 18.927 36.2979 18.8573C36.4489 18.7847 36.5771 18.6857 36.6826 18.5602C36.788 18.4347 36.8695 18.2854 36.9271 18.1125C36.9846 17.9368 37.0133 17.7457 37.0133 17.5393V16.9506Z" fill="#121212"/>
<path d="M41.875 20.25L40.375 20.2449V15.75H39.625V14.25H41.875V20.25Z" fill="#121212"/>
<path d="M45.4 20.25L43.9 20.2449V15.75H43.15V14.25H45.4V20.25Z" fill="#121212"/>
<path d="M34.5 28.75L33 28.7449V24.25H32.25V22.75H34.5V28.75Z" fill="#121212"/>
<path d="M38.25 34.7395C38.25 34.985 38.2224 35.2179 38.1673 35.4383C38.1146 35.6559 38.0391 35.8581 37.9408 36.045C37.8426 36.2319 37.7263 36.3992 37.5921 36.5471C37.4579 36.6949 37.3105 36.8218 37.1499 36.9278C36.9918 37.031 36.8228 37.1105 36.643 37.1663C36.4633 37.2221 36.28 37.25 36.093 37.25H34.407C34.2176 37.25 34.0331 37.2221 33.8534 37.1663C33.6736 37.1105 33.5034 37.031 33.3429 36.9278C33.1847 36.8218 33.0385 36.6949 32.9043 36.5471C32.7701 36.3992 32.6538 36.2319 32.5556 36.045C32.4597 35.8581 32.3842 35.6559 32.3291 35.4383C32.2764 35.2179 32.25 34.985 32.25 34.7395V33.7605C32.25 33.3923 32.3087 33.0547 32.4262 32.7479C32.546 32.4411 32.7054 32.1775 32.9043 31.9571C33.1032 31.734 33.3321 31.561 33.5909 31.4383C33.8522 31.3128 34.1242 31.25 34.407 31.25H36.093C36.28 31.25 36.4633 31.2779 36.643 31.3337C36.8228 31.3895 36.9918 31.4704 37.1499 31.5764C37.3105 31.6796 37.4579 31.8051 37.5921 31.9529C37.7263 32.1008 37.8426 32.2681 37.9408 32.455C38.0391 32.6419 38.1146 32.8455 38.1673 33.0659C38.2224 33.2835 38.25 33.515 38.25 33.7605V34.7395ZM37.0133 33.9506C37.0133 33.7359 36.9798 33.5406 36.9127 33.3649C36.8456 33.1891 36.7557 33.0385 36.643 32.913C36.5328 32.7875 36.4046 32.6912 36.2584 32.6243C36.1122 32.5573 35.9588 32.5253 35.7982 32.5281H34.7461C34.5903 32.5253 34.4286 32.549 34.28 32.6159C34.1338 32.6801 34.0031 32.7749 33.8881 32.9004C33.7755 33.0232 33.6844 33.1738 33.6149 33.3523C33.5478 33.5281 33.5142 33.7247 33.5142 33.9423V34.5393C33.5142 34.7568 33.5478 34.9535 33.6149 35.1292C33.682 35.305 33.7719 35.4556 33.8845 35.5811C33.9972 35.7038 34.1266 35.7987 34.2728 35.8656C34.4214 35.9326 34.5759 35.9647 34.7365 35.9619H35.7982C35.9828 35.9619 36.1493 35.927 36.2979 35.8573C36.4489 35.7847 36.5771 35.6857 36.6826 35.5602C36.788 35.4347 36.8695 35.2854 36.9271 35.1125C36.9846 34.9368 37.0133 34.7457 37.0133 34.5393V33.9506Z" fill="#121212"/>
<path d="M34.5 45.75L33 45.7449V41.25H32.25V39.75H34.5V45.75Z" fill="#121212"/>
<path d="M38.025 45.75L36.525 45.7449V41.25H35.775V39.75H38.025V45.75Z" fill="#121212"/>
<path d="M45.3 43.2395C45.3 43.485 45.2725 43.7179 45.2174 43.9383C45.1646 44.1559 45.0891 44.3581 44.9909 44.545C44.8926 44.7319 44.7764 44.8992 44.6422 45.0471C44.508 45.1949 44.3606 45.3218 44.2 45.4278C44.0418 45.531 43.8728 45.6105 43.6931 45.6663C43.5134 45.7221 43.33 45.75 43.1431 45.75H41.457C41.2677 45.75 41.0832 45.7221 40.9034 45.6663C40.7237 45.6105 40.5535 45.531 40.3929 45.4278C40.2347 45.3218 40.0885 45.1949 39.9543 45.0471C39.8201 44.8992 39.7039 44.7319 39.6056 44.545C39.5098 44.3581 39.4343 44.1559 39.3791 43.9383C39.3264 43.7179 39.3 43.485 39.3 43.2395V42.2605C39.3 41.8923 39.3588 41.5547 39.4762 41.2479C39.596 40.9411 39.7554 40.6775 39.9543 40.4571C40.1533 40.234 40.3821 40.061 40.641 39.9383C40.9022 39.8128 41.1742 39.75 41.457 39.75H43.1431C43.33 39.75 43.5134 39.7779 43.6931 39.8337C43.8728 39.8895 44.0418 39.9704 44.2 40.0764C44.3606 40.1796 44.508 40.3051 44.6422 40.4529C44.7764 40.6008 44.8926 40.7681 44.9909 40.955C45.0891 41.1419 45.1646 41.3455 45.2174 41.5659C45.2725 41.7835 45.3 42.015 45.3 42.2605V43.2395ZM44.0634 42.4506C44.0634 42.2359 44.0298 42.0406 43.9627 41.8649C43.8956 41.6891 43.8057 41.5385 43.6931 41.413C43.5829 41.2875 43.4546 41.1912 43.3084 41.1243C43.1622 41.0573 43.0089 41.0253 42.8483 41.0281H41.7961C41.6404 41.0253 41.4786 41.049 41.33 41.1159C41.1838 41.1801 41.0532 41.2749 40.9382 41.4004C40.8255 41.5232 40.7344 41.6738 40.6649 41.8523C40.5978 42.0281 40.5643 42.2247 40.5643 42.4423V43.0393C40.5643 43.2568 40.5978 43.4535 40.6649 43.6292C40.732 43.805 40.8219 43.9556 40.9346 44.0811C41.0472 44.2038 41.1766 44.2987 41.3228 44.3656C41.4714 44.4326 41.626 44.4647 41.7866 44.4619H42.8483C43.0328 44.4619 43.1994 44.427 43.348 44.3573C43.499 44.2847 43.6272 44.1857 43.7326 44.0602C43.8381 43.9347 43.9196 43.7854 43.9771 43.6125C44.0346 43.4368 44.0634 43.2457 44.0634 43.0393V42.4506Z" fill="#121212"/>
<rect width="10.5" height="1.95" transform="matrix(-1 0 0 1 29.25 30.75)" fill="#121212"/>
<rect width="10.5" height="1.95" transform="matrix(-1 0 0 1 29.25 34.95)" fill="#121212"/>
<rect width="6" height="1.95" transform="matrix(-1 0 0 1 29.25 39.15)" fill="#121212"/>
</g>
<defs>
<clipPath id="clip0_818_685">
<rect width="31.5" height="31.5" fill="white" transform="matrix(-1 0 0 1 45.75 14.25)"/>
</clipPath>
</defs>
</svg>
