<svg width="43" height="52" viewBox="0 0 43 52" fill="none" xmlns="http://www.w3.org/2000/svg">
<path d="M33.6322 38.1891C32.4254 37.465 30.9772 36.4995 30.2531 36.2582C29.7704 36.0168 28.8049 36.2582 28.0808 36.4995C28.5635 36.7409 28.8049 37.465 29.0463 37.9477C29.0463 38.1891 29.2876 38.4305 29.2876 38.6718C29.529 39.1546 30.0117 39.6373 30.2531 40.12C30.7358 40.6028 31.2186 41.0855 31.2186 41.8096C31.2186 42.5337 30.4945 44.4646 30.0117 45.6714C29.529 46.6369 28.8049 47.8437 28.3222 48.5678C28.0808 48.8092 28.0808 49.0506 28.0808 49.0506C28.0808 49.2919 27.8394 49.2919 27.8394 49.5333C27.8394 49.7747 27.5981 50.016 27.5981 50.016C27.3567 50.2574 27.1153 50.4988 26.874 50.4988H26.3912L25.4258 51.7056H27.5981L28.0808 50.9815V50.7401L28.3222 50.4988C28.3222 50.4988 28.5635 50.4988 28.8049 50.4988C29.2876 49.7747 30.0117 48.3265 30.4945 47.1196C30.7358 46.6369 30.9772 46.1542 30.9772 46.1542C31.9427 44.4646 33.1495 42.7751 33.8736 41.8096C34.3563 41.3269 34.5977 40.8441 34.5977 40.6028C34.5977 40.3614 34.5977 40.12 34.3563 39.8787C33.8736 39.8787 33.6322 39.1546 33.6322 38.1891Z" fill="url(#paint0_linear_638_2612)"/>
<path d="M12.3917 32.3964C12.1503 31.9137 11.909 31.1896 11.6676 30.9482C11.4262 31.1896 10.9435 31.6723 10.4608 31.6723C9.97805 31.6723 6.1162 32.1551 6.1162 32.1551C5.3921 32.1551 4.668 32.3964 4.18527 33.1205C4.18527 33.1205 3.94391 33.6033 3.70254 34.3274C3.46118 35.0515 2.97844 36.0169 2.49571 36.9824C2.49571 36.9824 1.04752 38.9133 1.04752 39.1547C0.806152 39.396 1.04752 39.6374 1.04752 39.8788V40.1201C1.04752 40.3615 0.806152 40.8442 0.806152 41.0856L1.77162 42.2924L2.97844 40.6029L2.49571 40.1201L2.25435 39.8788V39.6374C2.49571 39.6374 2.73708 39.396 2.73708 39.396C2.73708 39.1547 2.73708 39.1547 2.73708 38.6719C2.73708 38.1892 2.73708 37.4651 2.97844 36.9824C3.70254 35.7756 4.18527 35.5342 4.42664 35.0515C4.668 34.8101 4.668 34.8101 4.90937 34.5687C5.3921 34.086 5.3921 34.086 5.63347 34.086C5.87483 34.086 7.56439 34.3274 8.52986 34.5687C9.49532 34.8101 11.909 35.0515 13.8399 34.8101C14.3226 34.5687 13.3572 33.6033 12.3917 32.3964Z" fill="url(#paint1_linear_638_2612)"/>
<path d="M40.8729 45.6712C40.6315 43.9816 40.3902 42.5334 40.3902 41.3266C40.3902 40.3612 40.1488 39.6371 40.1488 39.3957C40.1488 39.1543 39.6661 38.913 39.1833 38.4302C38.4592 37.9475 37.7351 37.2234 37.4938 36.7407C37.011 35.2925 37.2524 33.6029 37.4938 32.1547C37.4938 31.4306 37.7351 30.4652 37.7351 29.7411C37.2524 29.4997 37.011 29.017 37.011 29.017C37.011 29.017 37.2524 29.2583 37.7351 29.4997C37.9765 29.4997 38.4592 29.7411 38.7006 29.7411C38.942 29.7411 39.1833 29.7411 39.4247 29.7411C39.6661 29.7411 39.9074 29.4997 40.1488 29.2583C39.4247 29.017 38.942 28.2929 38.4592 27.8101C37.9765 27.3274 37.7351 27.086 37.2524 26.8447C37.011 26.6033 36.5283 26.6033 36.2869 26.6033H36.0456C36.0456 26.6033 35.8042 26.6033 35.8042 26.3619C35.0801 26.1206 33.6319 25.3965 32.1837 25.3965C30.9769 25.3965 29.7701 25.6378 28.8046 25.8792C27.8391 26.1206 27.115 26.1206 26.3909 26.1206C25.6669 26.1206 24.9428 26.1206 24.46 26.1206C23.2532 26.1206 22.2877 26.1206 21.3223 25.3965C19.6327 23.9483 20.3568 22.0174 20.8395 19.6037C20.3568 17.9141 20.5982 16.4659 20.5982 15.0177C20.1154 15.0177 19.6327 14.535 19.6327 14.535C19.6327 14.535 19.8741 14.535 20.8395 14.7764C21.3223 14.7764 21.805 14.7764 22.2877 14.535C23.2532 14.2936 23.7359 13.0868 23.7359 12.6041C23.7359 12.3627 23.7359 12.3627 23.4946 12.3627C23.0118 12.3627 22.5291 12.3627 21.5636 12.6041C21.3223 12.6041 21.0809 12.6041 20.8395 12.8455C22.2877 12.3627 23.4946 11.6386 23.9773 11.3973C24.2187 11.1559 24.46 11.1559 24.46 11.1559H24.7014C25.4255 11.1559 26.8737 11.3973 27.3564 9.94906V9.7077H27.115C26.8737 9.94906 26.3909 10.4318 25.4255 10.4318L25.6669 10.1904C25.9082 9.94906 26.3909 9.46633 27.115 8.74224C27.3564 8.2595 28.5632 6.81131 28.8046 3.91492C28.8046 3.67355 28.8046 3.67355 28.8046 3.43219C28.8046 3.19082 28.8046 3.19082 28.8046 2.94946C28.8046 2.22536 28.8046 1.01853 28.3219 0.294434H28.0805V0.535799V0.777165C28.3219 1.01853 28.5632 1.74263 28.3219 2.46673C28.3219 2.70809 28.3219 2.70809 28.0805 2.70809C27.8391 2.46673 27.5978 1.98399 26.8737 1.74263H26.6323V1.98399C27.5978 2.70809 27.8391 3.67355 27.8391 4.39765C27.8391 4.88038 27.5978 6.56994 26.8737 7.53541L26.6323 7.77677C26.6323 7.77677 26.3909 7.77677 26.3909 7.53541C26.1496 7.29404 25.1841 5.84585 25.9082 3.91492V3.67355H25.6669C24.46 5.60448 25.4255 7.05267 25.9082 7.77677L26.1496 8.01814C26.1496 8.2595 26.1496 8.50087 26.1496 8.50087C26.1496 8.74224 24.7014 9.94906 24.2187 9.94906C23.7359 10.1904 23.4946 10.1904 23.2532 9.94906C22.7705 9.7077 20.8395 8.2595 21.5636 5.36311V5.12175H21.3223C20.5982 7.05268 20.8395 8.74224 22.2877 10.1904V10.4318L22.0464 10.6732C22.2877 10.9145 21.5636 11.3973 20.3568 11.3973C20.3568 11.3973 20.1154 11.1559 19.8741 10.9145C19.3913 10.4318 18.9086 9.46633 19.15 8.01814H18.9086H18.6672C18.1845 9.7077 18.9086 10.9145 19.15 11.3973L19.3913 11.6386C19.15 11.88 17.4604 11.88 17.2191 11.6386C15.0468 10.4318 14.0813 7.53541 14.0813 6.32858C14.0813 3.91492 14.8054 2.22536 16.0122 1.01853V0.777165H15.7709C14.3227 1.98399 14.0813 3.43219 13.8399 4.63902C13.8399 4.88038 13.8399 4.88038 13.5986 5.12175H13.3572C13.3572 5.12175 12.3917 4.63902 12.6331 2.70809V2.46673H12.3917C12.1504 3.43219 11.909 4.63902 13.1158 5.60448C13.1158 5.60448 13.3572 5.84585 13.3572 6.08721C13.3572 6.32858 13.5986 7.77677 13.5986 7.77677L13.3572 8.01814H13.1158C12.8745 7.77677 12.6331 7.77677 12.3917 6.81131H12.1504V7.05267C12.1504 8.01814 13.1158 8.50087 13.3572 8.74224C13.3572 8.74224 13.5986 8.9836 13.8399 9.22497C14.0813 9.94906 14.564 10.4318 14.8054 10.6732V10.9145C14.8054 11.1559 15.0468 11.1559 14.8054 11.3973C14.564 11.3973 13.8399 11.6386 12.8745 10.6732H12.6331V10.9145C13.1158 12.1214 14.3227 12.1214 15.0468 12.1214C15.2881 12.1214 15.2881 12.1214 15.2881 12.1214C15.5295 12.1214 15.7709 12.3627 16.0122 12.6041C15.7709 12.6041 15.2881 12.6041 15.2881 12.6041C15.0468 12.6041 15.0468 12.8455 15.0468 12.8455C15.0468 13.0868 14.8054 13.0868 14.564 13.3282C14.0813 13.3282 11.6676 14.0523 11.4263 14.0523C11.1849 14.0523 11.1849 15.7418 11.1849 15.7418C11.1849 15.9832 11.909 16.4659 12.3917 16.4659C13.3572 16.4659 14.0813 16.7073 14.564 16.9487C14.564 16.9487 14.564 16.9487 14.8054 16.9487H15.0468C15.2881 16.9487 15.5295 17.19 15.7709 17.19C16.0122 17.19 16.495 17.4314 16.495 17.4314C16.495 17.4314 16.0122 17.4314 15.5295 17.4314C15.2881 17.4314 15.2881 17.4314 15.2881 17.4314C15.5295 18.8796 14.3227 20.5692 13.1158 22.2587C11.909 23.9483 10.4608 26.6033 11.4263 29.2583C11.6676 29.7411 11.6676 29.9824 11.909 30.2238C12.3917 31.1893 12.6331 31.9133 13.1158 32.3961C13.5986 32.8788 14.3227 33.6029 14.8054 34.0856C14.8054 33.8443 14.564 32.8788 14.564 32.8788L15.2881 34.8097C15.2881 35.0511 15.2881 35.0511 15.5295 35.2925C15.5295 35.5338 15.7709 36.0166 16.0122 36.2579C16.2536 36.7407 16.495 37.2234 16.7363 37.4648C16.9777 37.9475 17.2191 38.1889 17.2191 38.6716C17.2191 39.1543 17.2191 40.6025 17.2191 41.3266V41.568C17.2191 41.8093 17.2191 42.0507 17.4604 42.2921C17.7018 42.5334 17.7018 43.0162 17.7018 43.2575V47.8435C17.7018 48.0849 17.7018 48.3262 17.4604 48.3262V48.5676C17.4604 48.5676 17.4604 49.0503 17.4604 49.2917C17.4604 49.5331 17.2191 49.7744 17.2191 49.7744L16.7363 50.0158L15.7709 51.2226H17.9431V50.2571L17.7018 50.0158L17.9431 49.7744C18.1845 49.7744 18.6672 49.7744 18.6672 49.5331C18.6672 49.5331 18.6672 49.2917 18.6672 48.5676C18.6672 48.3262 18.6672 48.0849 18.6672 47.8435C18.6672 47.8435 18.6672 47.6021 18.6672 47.1194C18.6672 45.9126 18.6672 43.2575 18.6672 42.7748C18.6672 42.5334 18.6672 42.2921 18.6672 42.2921C18.6672 42.0507 18.9086 41.8093 18.9086 41.3266C18.9086 40.8439 19.15 39.6371 19.15 38.4302C19.15 37.9475 19.15 37.4648 19.6327 36.7407C19.8741 36.2579 20.1154 35.5338 20.5982 35.5338C21.0809 35.5338 21.805 35.5338 22.5291 35.7752C23.2532 36.0166 24.2187 36.2579 24.9428 36.2579C25.4255 36.2579 26.1496 36.2579 26.6323 36.0166C27.115 35.7752 27.8391 35.7752 27.8391 35.5338C28.5632 35.2925 30.0114 34.5684 30.7355 35.0511C31.2183 35.2925 33.1492 36.7407 34.356 37.7061C34.8388 38.1889 35.5628 38.4302 35.8042 38.913C36.5283 39.6371 37.9765 40.8439 38.4592 41.568C39.1833 43.0162 39.4247 44.4644 39.9074 46.6367C40.1488 47.3608 40.1488 48.3262 40.1488 48.5676C40.1488 48.809 40.1488 48.809 40.3902 49.0503L40.6315 49.2917C40.6315 49.5331 40.6315 49.7744 40.6315 49.7744L40.1488 50.2571L39.6661 50.9812H41.597L41.8384 50.0158V49.7744V49.2917C41.8384 49.2917 42.3211 49.0503 42.3211 48.809C41.1143 47.8435 40.8729 45.6712 40.8729 45.6712ZM16.495 14.2936C16.2536 14.2936 16.0122 14.2936 16.0122 14.2936C16.0122 14.0523 16.2536 13.8109 16.495 13.8109C16.7363 13.8109 16.9777 14.0523 16.9777 14.0523C16.9777 14.0523 16.7363 14.2936 16.495 14.2936Z" fill="url(#paint2_linear_638_2612)"/>
<defs>
<linearGradient id="paint0_linear_638_2612" x1="30.0117" y1="36.1582" x2="30.0117" y2="51.7056" gradientUnits="userSpaceOnUse">
<stop stop-color="#006CFE"/>
<stop offset="1" stop-color="#004198"/>
</linearGradient>
<linearGradient id="paint1_linear_638_2612" x1="7.38723" y1="30.9482" x2="7.38723" y2="42.2924" gradientUnits="userSpaceOnUse">
<stop stop-color="#006CFE"/>
<stop offset="1" stop-color="#004198"/>
</linearGradient>
<linearGradient id="paint2_linear_638_2612" x1="26.716" y1="0.294434" x2="26.716" y2="51.2226" gradientUnits="userSpaceOnUse">
<stop stop-color="#006CFE"/>
<stop offset="1" stop-color="#004198"/>
</linearGradient>
</defs>
</svg>
