<svg width="5" height="15" viewBox="0 0 5 15" fill="none" xmlns="http://www.w3.org/2000/svg">
<path fill-rule="evenodd" clip-rule="evenodd" d="M4.1875 13.2264C4.1875 13.6739 4.00971 14.1032 3.69324 14.4196C3.37678 14.7361 2.94755 14.9139 2.5 14.9139C2.05245 14.9139 1.62322 14.7361 1.30676 14.4196C0.990289 14.1032 0.8125 13.6739 0.8125 13.2264C0.8125 12.7788 0.990289 12.3496 1.30676 12.0331C1.62322 11.7167 2.05245 11.5389 2.5 11.5389C2.94755 11.5389 3.37678 11.7167 3.69324 12.0331C4.00971 12.3496 4.1875 12.7788 4.1875 13.2264ZM4.1875 7.60138C4.1875 8.04893 4.00971 8.47816 3.69324 8.79462C3.37678 9.11109 2.94755 9.28888 2.5 9.28888C2.05245 9.28888 1.62322 9.11109 1.30676 8.79462C0.990289 8.47816 0.8125 8.04893 0.8125 7.60138C0.8125 7.15383 0.990289 6.7246 1.30676 6.40814C1.62322 6.09167 2.05245 5.91388 2.5 5.91388C2.94755 5.91388 3.37678 6.09167 3.69324 6.40814C4.00971 6.7246 4.1875 7.15383 4.1875 7.60138ZM4.1875 1.97638C4.1875 2.42393 4.00971 2.85315 3.69324 3.16962C3.37678 3.48609 2.94755 3.66388 2.5 3.66388C2.05245 3.66388 1.62322 3.48609 1.30676 3.16962C0.990289 2.85315 0.8125 2.42393 0.8125 1.97638C0.8125 1.52883 0.990289 1.0996 1.30676 0.783137C1.62322 0.466669 2.05245 0.288879 2.5 0.288879C2.94755 0.288879 3.37678 0.466669 3.69324 0.783137C4.00971 1.0996 4.1875 1.52883 4.1875 1.97638Z" fill="#7C8493"/>
</svg>
