<svg width="21" height="17" viewBox="0 0 21 17" fill="none" xmlns="http://www.w3.org/2000/svg">
<path fill-rule="evenodd" clip-rule="evenodd" d="M14.8747 16.6004C15.0404 16.6004 15.1994 16.5402 15.3166 16.433C15.4338 16.3259 15.4996 16.1805 15.4996 16.029V2.55301L19.4318 6.14912C19.5491 6.25641 19.7083 6.31668 19.8743 6.31668C20.0402 6.31668 20.1994 6.25641 20.3167 6.14912C20.4341 6.04184 20.5 5.89633 20.5 5.7446C20.5 5.59288 20.4341 5.44737 20.3167 5.34008L15.3171 0.769237C15.2591 0.716028 15.1901 0.673813 15.1142 0.64501C15.0383 0.616206 14.9569 0.601379 14.8747 0.601379C14.7925 0.601379 14.7111 0.616206 14.6351 0.64501C14.5592 0.673813 14.4902 0.716028 14.4322 0.769237L9.43258 5.34008C9.31524 5.44737 9.24931 5.59288 9.24931 5.7446C9.24931 5.89633 9.31524 6.04184 9.43258 6.14912C9.54993 6.25641 9.70909 6.31668 9.87505 6.31668C10.041 6.31668 10.2002 6.25641 10.3175 6.14912L14.2497 2.55301V16.029C14.2497 16.1805 14.3155 16.3259 14.4327 16.433C14.5499 16.5402 14.7089 16.6004 14.8747 16.6004ZM6.12535 0.602401C6.29109 0.602401 6.45005 0.662597 6.56725 0.769747C6.68445 0.876897 6.7503 1.02222 6.7503 1.17376V14.6498L10.6825 11.0536C10.7998 10.9464 10.959 10.8861 11.125 10.8861C11.2909 10.8861 11.4501 10.9464 11.5674 11.0536C11.6848 11.1609 11.7507 11.3064 11.7507 11.4582C11.7507 11.6099 11.6848 11.7554 11.5674 11.8627L6.56781 16.4335C6.50976 16.4867 6.44079 16.5289 6.36487 16.5577C6.28894 16.5866 6.20755 16.6014 6.12535 16.6014C6.04314 16.6014 5.96175 16.5866 5.88582 16.5577C5.8099 16.5289 5.74093 16.4867 5.68288 16.4335L0.683275 11.8627C0.565926 11.7554 0.5 11.6099 0.5 11.4582C0.5 11.3064 0.565926 11.1609 0.683275 11.0536C0.800624 10.9464 0.959783 10.8861 1.12574 10.8861C1.2917 10.8861 1.45086 10.9464 1.56821 11.0536L5.5004 14.6498V1.17376C5.5004 1.02222 5.56624 0.876897 5.68344 0.769747C5.80064 0.662597 5.9596 0.602401 6.12535 0.602401Z" fill="#7C8493"/>
</svg>
