<svg width="40" height="40" viewBox="0 0 40 40" fill="none" xmlns="http://www.w3.org/2000/svg">
<g clip-path="url(#clip0_71_101)">
<path d="M31.6667 0H8.33333C3.73167 0 0 3.73167 0 8.33333V31.6667C0 36.2683 3.73167 40 8.33333 40H31.6667C36.2683 40 40 36.2683 40 31.6667V8.33333C40 3.73167 36.2683 0 31.6667 0ZM11.3367 28.9317C8.155 28.1833 5.66333 25.5017 5.12167 22.2783C4.34 17.6267 7.41667 13.53 11.6667 12.6667V20.1417C11.6667 21.025 12.0183 21.8733 12.6433 22.4983L17.925 27.78C16.1033 28.9867 13.7867 29.5067 11.3367 28.9317ZM20.28 25.4233L15.4867 20.63C15.1733 20.3167 14.9983 19.8933 14.9983 19.4517V12.6683C18.8017 13.44 21.665 16.8017 21.665 20.8333C21.665 22.5317 21.1517 24.1067 20.2783 25.4233H20.28ZM33.3333 28.3333H28.3333C27.4133 28.3333 26.6667 27.5867 26.6667 26.6667C26.6667 25.7467 27.4133 25 28.3333 25H33.3333C34.2533 25 35 25.7467 35 26.6667C35 27.5867 34.2533 28.3333 33.3333 28.3333ZM33.3333 21.6667H28.3333C27.4133 21.6667 26.6667 20.92 26.6667 20C26.6667 19.08 27.4133 18.3333 28.3333 18.3333H33.3333C34.2533 18.3333 35 19.08 35 20C35 20.92 34.2533 21.6667 33.3333 21.6667ZM33.3333 15H28.3333C27.4133 15 26.6667 14.2533 26.6667 13.3333C26.6667 12.4133 27.4133 11.6667 28.3333 11.6667H33.3333C34.2533 11.6667 35 12.4133 35 13.3333C35 14.2533 34.2533 15 33.3333 15Z" fill="#121212"/>
<path d="M11.3367 28.9317C8.155 28.1833 5.66333 25.5017 5.12167 22.2783C4.34 17.6267 7.41667 13.53 11.6667 12.6667V20.1417C11.6667 21.025 12.0183 21.8733 12.6433 22.4983L17.925 27.78C16.1033 28.9867 13.7867 29.5067 11.3367 28.9317Z" fill="#48E1A8"/>
</g>
<defs>
<clipPath id="clip0_71_101">
<rect width="40" height="40" fill="white"/>
</clipPath>
</defs>
</svg>
