<svg width="40" height="40" viewBox="0 0 40 40" fill="none" xmlns="http://www.w3.org/2000/svg">
<g clip-path="url(#clip0_71_144)">
<path d="M20.0001 31.6666C19.558 31.6666 19.1341 31.8422 18.8216 32.1548C18.509 32.4674 18.3334 32.8913 18.3334 33.3333V40H21.6667V33.3333C21.6667 32.8913 21.4911 32.4674 21.1786 32.1548C20.866 31.8422 20.4421 31.6666 20.0001 31.6666Z" fill="#48E1A8"/>
<path fill-rule="evenodd" clip-rule="evenodd" d="M32.7618 21.6666H40.0001V35C40.0001 36.3261 39.4734 37.5978 38.5357 38.5355C37.598 39.4732 36.3262 40 35.0001 40H25.0001V33.3333C25.0001 32.0072 24.4733 30.7354 23.5356 29.7978C22.5979 28.8601 21.3262 28.3333 20.0001 28.3333C18.674 28.3333 17.4022 28.8601 16.4645 29.7978C15.5268 30.7354 15 32.0072 15 33.3333V40H5.00002C3.67393 40 2.40216 39.4732 1.46447 38.5355C0.526786 37.5978 0 36.3261 0 35L0 21.6666H7.23836C8.34463 21.667 9.43988 21.4468 10.4601 21.019C11.4803 20.5912 12.4049 19.9643 13.18 19.1749L17.6434 14.3099C18.2736 13.7186 19.1028 13.3854 19.967 13.3761C20.8311 13.3669 21.6673 13.6823 22.3101 14.2599L26.8734 19.2249C27.6449 20.0008 28.5625 20.616 29.5732 21.0351C30.5839 21.4542 31.6676 21.6689 32.7618 21.6666ZM9.51188 33.8215C9.82444 34.134 10 34.558 10 35C10 35.442 9.82444 35.8659 9.51188 36.1785C9.19931 36.4911 8.77539 36.6667 8.33336 36.6667H6.66669C6.22466 36.6667 5.80073 36.4911 5.48817 36.1785C5.17561 35.8659 5.00002 35.442 5.00002 35C5.00002 34.558 5.17561 34.134 5.48817 33.8215C5.80073 33.5089 6.22466 33.3333 6.66669 33.3333H8.33336C8.77539 33.3333 9.19931 33.5089 9.51188 33.8215ZM9.51188 27.1548C9.82444 27.4673 10 27.8913 10 28.3333C10 28.7753 9.82444 29.1992 9.51188 29.5118C9.19931 29.8244 8.77539 30 8.33336 30H6.66669C6.22466 30 5.80073 29.8244 5.48817 29.5118C5.17561 29.1992 5.00002 28.7753 5.00002 28.3333C5.00002 27.8913 5.17561 27.4673 5.48817 27.1548C5.80073 26.8422 6.22466 26.6666 6.66669 26.6666H8.33336C8.77539 26.6666 9.19931 26.8422 9.51188 27.1548ZM22.7716 19.8147C23.1379 20.3629 23.3334 21.0073 23.3334 21.6666C23.3334 22.5507 22.9822 23.3985 22.3571 24.0236C21.732 24.6488 20.8841 25 20.0001 25C19.3408 25 18.6963 24.8045 18.1482 24.4382C17.6 24.0719 17.1727 23.5513 16.9205 22.9422C16.6682 22.3331 16.6022 21.6629 16.7308 21.0163C16.8594 20.3697 17.1769 19.7758 17.643 19.3096C18.1092 18.8434 18.7032 18.5259 19.3498 18.3973C19.9964 18.2687 20.6666 18.3347 21.2757 18.587C21.8848 18.8393 22.4054 19.2665 22.7716 19.8147ZM34.512 33.8215C34.8245 34.134 35.0001 34.558 35.0001 35C35.0001 35.442 34.8245 35.8659 34.512 36.1785C34.1994 36.4911 33.7755 36.6667 33.3334 36.6667H31.6668C31.2247 36.6667 30.8008 36.4911 30.4883 36.1785C30.1757 35.8659 30.0001 35.442 30.0001 35C30.0001 34.558 30.1757 34.134 30.4883 33.8215C30.8008 33.5089 31.2247 33.3333 31.6668 33.3333H33.3334C33.7755 33.3333 34.1994 33.5089 34.512 33.8215ZM31.6668 26.6666H33.3334C33.7755 26.6666 34.1994 26.8422 34.512 27.1548C34.8245 27.4673 35.0001 27.8913 35.0001 28.3333C35.0001 28.7753 34.8245 29.1992 34.512 29.5118C34.1994 29.8244 33.7755 30 33.3334 30H31.6668C31.2247 30 30.8008 29.8244 30.4883 29.5118C30.1757 29.1992 30.0001 28.7753 30.0001 28.3333C30.0001 27.8913 30.1757 27.4673 30.4883 27.1548C30.8008 26.8422 31.2247 26.6666 31.6668 26.6666Z" fill="#121212"/>
<path d="M7.23836 18.3333H0C0.00264644 16.1239 0.881473 14.0058 2.44371 12.4436C4.00594 10.8814 6.12403 10.0025 8.33336 9.9999H18.3334V2.72655C18.3337 2.26776 18.4497 1.81646 18.6706 1.41439C18.8916 1.01231 19.2104 0.672444 19.5975 0.42622C19.9846 0.179996 20.4275 0.0353664 20.8854 0.00570765C21.3432 -0.0239511 21.8011 0.0623189 22.2167 0.256539L27.5501 2.75655C27.7913 2.90602 27.9903 3.11459 28.1283 3.36251C28.2663 3.61042 28.3388 3.88947 28.3388 4.17322C28.3388 4.45696 28.2663 4.73601 28.1283 4.98393C27.9903 5.23184 27.7913 5.44042 27.5501 5.58989L21.6667 8.33323V9.9999H31.6668C33.8761 10.0025 35.9942 10.8814 37.5564 12.4436C39.1187 14.0058 39.9975 16.1239 40.0001 18.3333H32.7618C31.4596 18.3336 30.2087 17.8259 29.2751 16.9183L24.7151 11.9532C23.4406 10.7241 21.7363 10.0414 19.9657 10.0507C18.1951 10.0601 16.4982 10.7607 15.2367 12.0032L10.7734 16.8683C9.83415 17.8034 8.56372 18.3299 7.23836 18.3333Z" fill="#48E1A8"/>
</g>
<defs>
<clipPath id="clip0_71_144">
<rect width="40" height="40" fill="white"/>
</clipPath>
</defs>
</svg>
