<svg width="40" height="40" viewBox="0 0 40 40" fill="none" xmlns="http://www.w3.org/2000/svg">
<g clip-path="url(#clip0_68_2009)">
<path fill-rule="evenodd" clip-rule="evenodd" d="M0 8.33329V23.295L10 18.15V-4.23174e-05H8.33333C3.73833 -4.23174e-05 0 3.73829 0 8.33329ZM22.3549 -4.23174e-05H22.3567V-0.00170898L22.3549 -4.23174e-05ZM22.3549 -4.23174e-05H13.3333V18.4766L23.19 28.3333H40V17.6416C39.9553 17.6896 39.9123 17.7387 39.8692 17.7877C39.8046 17.8613 39.74 17.935 39.67 18.005L36.58 21.03C35.0433 22.5316 33.0033 23.36 30.8333 23.36H30.8217C28.66 23.36 26.6217 22.5316 25.0867 21.0283L22.035 18.0416C19.6383 15.6483 18.3333 12.505 18.3333 9.16496C18.3333 5.82496 19.635 2.68496 21.9967 0.324958C22.0658 0.255836 22.1391 0.191531 22.2123 0.127338C22.2603 0.0852714 22.3082 0.0432525 22.3549 -4.23174e-05ZM11.3483 21.2066L20.2983 30.1566L20.3 30.1583L12.9167 40.0016H8.33333C3.73833 40.0016 0 36.2633 0 31.6683V27.0466L11.3483 21.2066ZM31.6667 40H17.0833L23.3333 31.6666H40C40 36.2616 36.2617 40 31.6667 40Z" fill="#48E1A8"/>
<path fill-rule="evenodd" clip-rule="evenodd" d="M40 9.16663C40 11.6166 39.0467 13.9183 37.315 15.6483L34.2483 18.65C33.3083 19.5716 32.07 20.03 30.8333 20.03C29.5967 20.03 28.36 19.5716 27.4183 18.65L24.365 15.6616C22.62 13.9183 21.6667 11.6166 21.6667 9.16829C21.6667 6.71996 22.62 4.41662 24.3517 2.68662C26.0817 0.954958 28.3833 0.00162435 30.8333 0.00162435C33.2833 0.00162435 35.5833 0.954958 37.315 2.68662C39.0467 4.41662 40 6.71829 40 9.16663ZM30.8333 6.65662C32.2133 6.65662 33.3333 7.77662 33.3333 9.15662C33.3333 10.5366 32.2133 11.6566 30.8333 11.6566C29.4533 11.6566 28.3333 10.5366 28.3333 9.15662C28.3333 7.77662 29.4533 6.65662 30.8333 6.65662Z" fill="#121212"/>
</g>
<defs>
<clipPath id="clip0_68_2009">
<rect width="40" height="40" fill="white"/>
</clipPath>
</defs>
</svg>
