<svg width="34" height="40" viewBox="0 0 34 40" fill="none" xmlns="http://www.w3.org/2000/svg">
<path d="M20 11.6667V0.766667C21.5217 1.34333 22.9217 2.23167 24.1083 3.41667L29.915 9.22667C31.1017 10.4117 31.99 11.8117 32.5667 13.3333H21.6667C20.7467 13.3333 20 12.585 20 11.6667ZM33.3333 17.475V31.6667C33.3333 36.2617 29.595 40 25 40H8.33333C3.73833 40 0 36.2617 0 31.6667V8.33333C0 3.73833 3.73833 0 8.33333 0H15.8583C16.13 0 16.3983 0.0216667 16.6667 0.04V11.6667C16.6667 14.4233 18.91 16.6667 21.6667 16.6667H33.2933C33.3117 16.935 33.3333 17.2033 33.3333 17.475ZM11.6667 30C11.6567 27.82 8.34333 27.8217 8.33333 30V33.3333C8.34333 35.5133 11.6567 35.5117 11.6667 33.3333V30ZM18.3333 21.6667C18.3233 19.4867 15.01 19.4883 15 21.6667V33.3333C15.01 35.5133 18.3233 35.5117 18.3333 33.3333V21.6667ZM25 26.6667C24.99 24.4867 21.675 24.4883 21.6667 26.6667V33.3333C21.6767 35.5133 24.9917 35.5117 25 33.3333V26.6667Z" fill="#121212"/>
<path d="M11.6667 30C11.6567 27.82 8.34333 27.8217 8.33333 30V33.3333C8.34333 35.5133 11.6567 35.5117 11.6667 33.3333V30Z" fill="#48E1A8"/>
<path d="M18.3333 21.6667C18.3233 19.4867 15.01 19.4883 15 21.6667V33.3333C15.01 35.5133 18.3233 35.5117 18.3333 33.3333V21.6667Z" fill="#48E1A8"/>
<path d="M25 26.6667C24.99 24.4867 21.675 24.4883 21.6667 26.6667V33.3333C21.6767 35.5133 24.9917 35.5117 25 33.3333V26.6667Z" fill="#48E1A8"/>
</svg>
